
<svg width="569px" height="658px" viewBox="0 0 569 658" version="1.1" xmlns="http://www.w3.org/2000/svg" xmlns:xlink="http://www.w3.org/1999/xlink">
    <!-- Generator: Sketch 48.1 (47250) - http://www.bohemiancoding.com/sketch -->
    <desc>Created with Sketch.</desc>
    <defs>
        <linearGradient x1="50%" y1="0%" x2="50%" y2="100%" id="linearGradient-1">
            <stop stop-color="#38BFDA" offset="0%"></stop>
            <stop stop-color="#1A8BB3" offset="100%"></stop>
        </linearGradient>
    </defs>
    <g id="Page-1" stroke="none" stroke-width="1" fill="none" fill-rule="evenodd">
        <g id="iPad-Landscape-Copy-15" transform="translate(-344.000000, -131.000000)">
            <g id="Group-2-Copy" transform="translate(344.000000, 132.000000)">
                <path d="M276.247905,10.1216776 C281.028403,7.35543975 288.781273,7.35668491 293.559618,10.1216776 L555.247905,161.547764 C560.028403,164.314002 563.903762,171.028606 563.903762,176.551613 L563.903762,479.448387 C563.903762,484.968546 560.026251,491.687244 555.247905,494.452236 L293.559618,645.878322 C288.779121,648.64456 281.026251,648.643315 276.247905,645.878322 L14.5596184,494.452236 C9.77912084,491.685998 5.90376189,484.971394 5.90376189,479.448387 L5.90376189,176.551613 C5.90376189,171.031454 9.78127268,164.312756 14.5596184,161.547764 L276.247905,10.1216776 Z" id="Polygon-Copy-8" stroke="#3D3D3D" fill-opacity="0.7" fill="#ECECEC" transform="translate(284.903762, 328.000000) rotate(-180.000000) translate(-284.903762, -328.000000) "></path>
                <path d="M275.786045,36.0765405 C280.569364,33.3086697 288.32172,33.3069701 293.107977,36.0765405 L532.233055,174.446412 C537.016375,177.214283 540.894021,183.942292 540.894021,189.460123 L540.894021,466.242486 C540.894021,471.766458 537.019312,478.486626 532.233055,481.256196 L293.107977,619.626068 C288.324657,622.393939 280.572301,622.395638 275.786045,619.626068 L36.6609662,481.256196 C31.8776466,478.488325 28,471.760317 28,466.242486 L28,189.460123 C28,183.93615 31.8747094,177.215983 36.6609662,174.446412 L275.786045,36.0765405 Z" id="Polygon-Copy-9" stroke="#3D3D3D" transform="translate(284.447011, 327.851304) rotate(-180.000000) translate(-284.447011, -327.851304) "></path>
                <path d="M276.673605,177.075677 C281.455768,174.308475 289.207915,174.30774 293.991348,177.075677 L411.006081,244.786323 C415.788244,247.553525 419.664953,254.281834 419.664953,259.787933 L419.664953,395.268774 C419.664953,400.786733 415.789514,407.502447 411.006081,410.270384 L293.991348,477.98103 C289.209185,480.748232 281.457038,480.748967 276.673605,477.98103 L159.658871,410.270384 C154.876709,407.503182 151,400.774873 151,395.268774 L151,259.787933 C151,254.269974 154.875438,247.55426 159.658871,244.786323 L276.673605,177.075677 Z" id="Polygon-Copy-10" stroke="#3D3D3D" transform="translate(285.332476, 327.528353) rotate(-180.000000) translate(-285.332476, -327.528353) "></path>
                <path d="M285,0 L285,656" id="Line" stroke="#D7D7D7" stroke-linecap="square"></path>
                <path d="M568.5,165.5 L1.5,491.5" id="Line-Copy" stroke="#D7D7D7" stroke-linecap="square"></path>
                <path d="M0.5,165.5 L568.5,491.5" id="Line-Copy-2" stroke="#D7D7D7" stroke-linecap="square"></path>
                <circle id="Oval-3" stroke="#9B9B9B" cx="284.5" cy="328.5" r="71.5"></circle>
                <circle id="Oval-3-Copy" stroke="#9B9B9B" cx="285.5" cy="327.5" r="153.5"></circle>
                <circle id="Oval-3-Copy-2" stroke="#9B9B9B" cx="284.5" cy="328.5" r="256.5"></circle>
            </g>
            <g id="Fixit" transform="translate(629.500000, 460.000000) rotate(-180.000000) translate(-629.500000, -460.000000) translate(495.000000, 307.000000)">
                <path d="M125.673605,2.07567663 C130.455768,-0.691524664 138.207915,-0.692259729 142.991348,2.07567663 L260.006081,69.7863233 C264.788244,72.5535246 268.664953,79.2818341 268.664953,84.7879329 L268.664953,220.268774 C268.664953,225.786733 264.789514,232.502447 260.006081,235.270384 L142.991348,302.98103 C138.209185,305.748232 130.457038,305.748967 125.673605,302.98103 L8.65887135,235.270384 C3.87670875,232.503182 2.29829673e-14,225.774873 1.99457514e-14,220.268774 L-5.47867553e-14,84.7879329 C-5.78305133e-14,79.269974 3.87543844,72.5542597 8.65887135,69.7863233 L125.673605,2.07567663 Z" id="Polygon-Copy-10" fill="url(#linearGradient-1)" opacity="0.7" transform="translate(134.332476, 152.528353) rotate(-180.000000) translate(-134.332476, -152.528353) "></path>
                <path d="M125.676918,22.6151728 C130.457251,19.8490303 138.211404,19.8511724 142.988034,22.6151728 L242.259985,80.0589472 C247.040318,82.8250896 250.915543,89.5373448 250.915543,95.0708447 L250.915543,209.985862 C250.915543,215.510562 247.036616,222.233759 242.259985,224.99776 L142.988034,282.441534 C138.207702,285.207677 130.453549,285.205535 125.676918,282.441534 L26.4049677,224.99776 C21.624635,222.231617 17.7494096,215.519362 17.7494096,209.985862 L17.7494096,95.0708447 C17.7494096,89.5461451 21.6283369,82.8229475 26.4049677,80.0589472 L125.676918,22.6151728 Z" id="Polygon-Copy-11" fill="url(#linearGradient-1)" opacity="0.7" transform="translate(134.332476, 152.528353) rotate(-180.000000) translate(-134.332476, -152.528353) "></path>
                <path d="M125.677252,47.6709047 C130.4574,44.9048689 138.201183,44.9011834 142.987701,47.6709047 L220.610013,92.5871028 C225.390161,95.3531386 229.265237,102.072713 229.265237,107.587773 L229.265237,197.468934 C229.265237,202.98754 225.39653,209.699883 220.610013,212.469604 L142.987701,257.385802 C138.207552,260.151838 130.463769,260.155524 125.677252,257.385802 L48.0549397,212.469604 C43.2747912,209.703568 39.3997153,202.983994 39.3997153,197.468934 L39.3997153,107.587773 C39.3997153,102.069167 43.2684221,95.3568241 48.0549397,92.5871028 L125.677252,47.6709047 Z" id="Polygon-Copy-13" fill="url(#linearGradient-1)" opacity="0.7" transform="translate(134.332476, 152.528353) rotate(-180.000000) translate(-134.332476, -152.528353) "></path>
                <circle id="Oval-3" fill="#F1F1F1" cx="133.5" cy="153.5" r="71.5"></circle>
            </g>
        </g>
    </g>
</svg>